<svg xmlns="http://www.w3.org/2000/svg" viewBox="0 0 91.798073 84.896156" height="320.867" width="346.953"><path d="M31.95 84.395C16.394 81.95 4.726 71.535.91 56.685c-3.6-14.012 3.823-31.489 16.106-37.924 7.812-4.093 15.405-4.338 30.13-.971l1.549.354-1.615-2.12c-3.77-4.951-5.06-9.132-3.637-11.79.745-1.392 4.333-3.337 7.365-3.992 2.06-.446 2.097-.418 1.732 1.322-1.013 4.827-1.809 12.6-1.44 14.07.744 2.965 2.322 3.211 8.677 1.352 3.136-.917 6.82-1.943 8.187-2.279 2.931-.72 9.909-.229 14.29 1.006l3.107.875-3.417.1c-1.88.05-3.945.306-4.59.559-.958.376-.648.661 1.69 1.554 3.799 1.45 8.42 5.693 10.673 9.797 1.672 3.047 1.835 3.893 1.953 10.158l.128 6.835-.575-4.649c-.72-5.81-2.852-10.267-6.542-13.669-2.536-2.337-9.29-6.092-9.886-5.496-.129.129.59 1.905 1.595 3.947a21.352 21.352 0 0 1 2.162 7.75l.331 4.04-1.252-3.107c-.69-1.709-2.097-4.13-3.129-5.38-3.275-3.97-10.259-6.53-13.95-5.113-.875.335-.835.632.336 2.527l1.328 2.148-2.398-1.285c-1.319-.707-3.24-1.285-4.27-1.285-5.562.001-16.652 8.622-20.182 15.688-1.037 2.074-1.885 4.302-1.885 4.951 0 2.214-1.17.465-1.598-2.39-.828-5.522 1.345-13.766 4.79-18.178 1.95-2.495 1.522-2.77-3.635-2.334-6.782.574-11.39 2.87-16.984 8.464-4.769 4.769-5.003 4.479-1.795-2.228.998-2.087 3.23-5.232 4.961-6.99 1.73-1.758 2.921-3.194 2.646-3.19-1.47.014-7.204 4.05-9.692 6.817-4.789 5.326-6.792 13.027-5.9 22.69 1.132 12.29 10.348 22.035 25.654 27.123 3.49 1.16 5.7 1.447 11.184 1.452 6.115.005 7.207-.17 10.373-1.654 4.226-1.98 8.53-6.108 10.681-10.244 2.063-3.964 2.069-2.94.008 1.415-.888 1.878-3.1 4.936-4.916 6.796-3.658 3.746-3.536 3.848 2.964 2.47 6.205-1.315 12.133-4.715 17.874-10.25 2.725-2.629 4.955-4.578 4.955-4.333 0 .967-5.585 7.901-8.77 10.89-8.672 8.135-30.09 13.648-44.331 11.411z" fill="#727272"/></svg>